<svg width="41" height="41" viewBox="0 0 41 41" fill="none" xmlns="http://www.w3.org/2000/svg">
<path d="M10.5899 40.5C7.65652 40.5 5.30097 39.6556 3.52319 37.9667C2.18985 36.6333 1.36763 34.9 1.05652 32.7667C0.74541 30.6333 0.967632 28.2778 1.72319 25.7C2.47874 23.1222 3.67874 20.5667 5.32319 18.0333C6.96763 15.5 8.94541 13.0778 11.2565 10.7667C13.5676 8.45555 15.9899 6.47778 18.5232 4.83333C21.0565 3.18889 23.6121 1.98889 26.1899 1.23333C28.7676 0.477774 31.1232 0.255555 33.2565 0.566666C35.3899 0.877777 37.1232 1.7 38.4565 3.03333C39.7899 4.36667 40.6121 6.1 40.9232 8.23333C41.2343 10.3667 41.0121 12.7222 40.2565 15.3C39.501 17.8778 38.301 20.4333 36.6565 22.9667C35.0121 25.5 33.0343 27.9222 30.7232 30.2333C28.4121 32.5444 25.9899 34.5222 23.4565 36.1667C20.9232 37.8111 18.3676 38.9889 15.7899 39.7C13.9232 40.2333 12.1899 40.5 10.5899 40.5ZM31.3899 2.1C29.9676 2.1 28.3676 2.36666 26.5899 2.9C24.1899 3.61111 21.7676 4.74444 19.3232 6.3C16.8787 7.85555 14.5676 9.72222 12.3899 11.9C10.2121 14.0778 8.34541 16.3889 6.78985 18.8333C5.2343 21.2778 4.10097 23.6778 3.38985 26.0333C2.67874 28.3889 2.45652 30.4778 2.72319 32.3C2.98985 34.1222 3.67874 35.5889 4.78985 36.7C5.90097 37.8111 7.36763 38.5 9.18985 38.7667C11.0121 39.0333 13.101 38.8111 15.4565 38.1C17.8121 37.3889 20.2121 36.2556 22.6565 34.7C25.101 33.1444 27.4121 31.2778 29.5899 29.1C31.7676 26.9222 33.6343 24.6111 35.1899 22.1667C36.7454 19.7222 37.8787 17.3222 38.5899 14.9667C39.301 12.6111 39.5232 10.5222 39.2565 8.7C38.9899 6.87778 38.3232 5.38889 37.2565 4.23333C35.8343 2.81111 33.8787 2.1 31.3899 2.1ZM26.0565 24.6333C26.0565 21.8778 25.2121 19.6556 23.5232 17.9667C21.8343 16.2778 19.6121 15.4333 16.8565 15.4333C16.5899 15.4333 16.3899 15.5222 16.2565 15.7C16.1232 15.8778 16.0343 16.0778 15.9899 16.3C15.9454 16.5222 16.0121 16.7222 16.1899 16.9C16.3676 17.0778 16.5899 17.1667 16.8565 17.1667C19.0787 17.1667 20.8787 17.8556 22.2565 19.2333C23.6343 20.6111 24.3232 22.4111 24.3232 24.6333C24.3232 24.9 24.4121 25.1 24.5899 25.2333C24.7676 25.3667 24.9676 25.4556 25.1899 25.5C25.4121 25.5444 25.6121 25.4778 25.7899 25.3C25.9676 25.1222 26.0565 24.9 26.0565 24.6333ZM32.7232 17.9667C32.7232 15.2111 31.8787 12.9889 30.1899 11.3C28.501 9.61111 26.2787 8.76666 23.5232 8.76666C23.2565 8.76666 23.0565 8.85555 22.9232 9.03333C22.7899 9.21111 22.7232 9.41111 22.7232 9.63333C22.7232 9.85555 22.7899 10.0556 22.9232 10.2333C23.0565 10.4111 23.2565 10.5 23.5232 10.5C25.7454 10.5 27.5454 11.1889 28.9232 12.5667C30.301 13.9444 30.9899 15.7444 30.9899 17.9667C30.9899 18.2333 31.0787 18.4333 31.2565 18.5667C31.4343 18.7 31.6343 18.7667 31.8565 18.7667C32.0787 18.7667 32.2787 18.7 32.4565 18.5667C32.6343 18.4333 32.7232 18.2333 32.7232 17.9667ZM19.3899 31.3C19.3899 28.5444 18.5454 26.3222 16.8565 24.6333C15.1676 22.9444 12.9454 22.1 10.1899 22.1C9.92319 22.1889 9.72319 22.3 9.58985 22.4333C9.45652 22.5667 9.36763 22.7444 9.32319 22.9667C9.27874 23.1889 9.34541 23.3889 9.52319 23.5667C9.70097 23.7444 9.92319 23.8333 10.1899 23.8333C12.4121 23.8333 14.2121 24.5222 15.5899 25.9C16.9676 27.2778 17.6565 29.0778 17.6565 31.3C17.6565 31.5667 17.7454 31.7667 17.9232 31.9C18.101 32.0333 18.301 32.1222 18.5232 32.1667C18.7454 32.2111 18.9232 32.1444 19.0565 31.9667C19.1899 31.7889 19.301 31.5667 19.3899 31.3Z" fill="#5CAF90"/>
</svg>
