<svg width="18" height="19" viewBox="0 0 18 19" fill="none" xmlns="http://www.w3.org/2000/svg">
<g clip-path="url(#clip0_1_840)">
<path d="M5.28 0.5H3C2.16 0.5 1.45 0.790001 0.87 1.37C0.29 1.95 0 2.66 0 3.5V5.72C0 6.56 0.29 7.27 0.87 7.85C1.45 8.43 2.16 8.72 3 8.72H5.28C6.08 8.72 6.78 8.43 7.38 7.85C7.98 7.27 8.26 6.58 8.22 5.78V3.5C8.26 2.66 7.98 1.95 7.38 1.37C6.78 0.790001 6.08 0.5 5.28 0.5ZM6.78 5.72C6.78 6.16 6.63 6.52 6.33 6.8C6.03 7.08 5.66 7.22 5.22 7.22H3C2.6 7.22 2.25 7.08 1.95 6.8C1.65 6.52 1.5 6.16 1.5 5.72V3.5C1.5 3.1 1.65 2.75 1.95 2.45C2.25 2.15 2.6 2 3 2H5.28C5.68 2 6.03 2.15 6.33 2.45C6.63 2.75 6.78 3.1 6.78 3.5V5.72ZM15 0.5H12.78C11.94 0.5 11.23 0.790001 10.65 1.37C10.07 1.95 9.78 2.66 9.78 3.5V5.72C9.78 6.56 10.07 7.27 10.65 7.85C11.23 8.43 11.94 8.72 12.78 8.72H15C15.84 8.72 16.55 8.43 17.13 7.85C17.71 7.27 18 6.58 18 5.78V3.5C18 2.66 17.71 1.95 17.13 1.37C16.55 0.790001 15.84 0.5 15 0.5ZM16.5 5.72C16.5 6.16 16.35 6.53 16.05 6.83C15.75 7.13 15.4 7.26 15 7.22H12.78C12.34 7.22 11.98 7.08 11.7 6.8C11.42 6.52 11.28 6.16 11.28 5.72V3.5C11.28 3.1 11.42 2.75 11.7 2.45C11.98 2.15 12.34 2 12.78 2H15C15.4 2 15.75 2.15 16.05 2.45C16.35 2.75 16.5 3.1 16.5 3.5V5.72ZM5.28 10.22H3C2.16 10.26 1.45 10.57 0.87 11.15C0.29 11.73 0 12.42 0 13.22V15.5C0 16.34 0.29 17.05 0.87 17.63C1.45 18.21 2.16 18.5 3 18.5H5.28C6.08 18.5 6.77 18.21 7.35 17.63C7.93 17.05 8.22 16.34 8.22 15.5V13.22C8.26 12.42 7.98 11.72 7.38 11.12C6.78 10.52 6.08 10.24 5.28 10.28V10.22ZM6.78 15.5C6.78 15.9 6.63 16.25 6.33 16.55C6.03 16.85 5.66 17 5.22 17H3C2.6 17 2.25 16.85 1.95 16.55C1.65 16.25 1.5 15.9 1.5 15.5V13.22C1.5 12.82 1.65 12.47 1.95 12.17C2.25 11.87 2.6 11.72 3 11.72H5.28C5.68 11.72 6.03 11.87 6.33 12.17C6.63 12.47 6.78 12.82 6.78 13.22V15.5ZM15 10.22H12.78C11.94 10.22 11.23 10.52 10.65 11.12C10.07 11.72 9.78 12.42 9.78 13.22V15.5C9.78 16.34 10.07 17.05 10.65 17.63C11.23 18.21 11.94 18.5 12.78 18.5H15C15.84 18.5 16.55 18.21 17.13 17.63C17.71 17.05 18 16.34 18 15.5V13.22C18 12.42 17.71 11.72 17.13 11.12C16.55 10.52 15.84 10.24 15 10.28V10.22ZM16.5 15.5C16.5 15.9 16.35 16.25 16.05 16.55C15.75 16.85 15.4 17 15 17H12.78C12.34 17 11.98 16.85 11.7 16.55C11.42 16.25 11.28 15.9 11.28 15.5V13.22C11.28 12.82 11.42 12.47 11.7 12.17C11.98 11.87 12.34 11.72 12.78 11.72H15C15.4 11.72 15.75 11.87 16.05 12.17C16.35 12.47 16.5 12.82 16.5 13.22V15.5Z" fill="white"/>
</g>
<defs>
<clipPath id="clip0_1_840">
<rect width="18" height="18" fill="white" transform="matrix(1 0 0 -1 0 18.5)"/>
</clipPath>
</defs>
</svg>
