<svg width="25" height="25" viewBox="0 0 25 25" fill="none" xmlns="http://www.w3.org/2000/svg">
<g clip-path="url(#clip0_1_835)">
<path d="M21.42 6.5H18.38C18.38 5.43333 18.1133 4.43333 17.58 3.5C17.0467 2.56667 16.3133 1.83333 15.38 1.3C14.4467 0.766666 13.4467 0.5 12.38 0.5C11.3133 0.5 10.3133 0.766666 9.38 1.3C8.44667 1.83333 7.71334 2.56667 7.18 3.5C6.64667 4.43333 6.38 5.43333 6.38 6.5H3.42C2.56667 6.5 1.84667 6.79333 1.26 7.38C0.673338 7.96667 0.380005 8.68667 0.380005 9.54V19.46C0.380005 20.3667 0.606672 21.2067 1.06 21.98C1.51334 22.7533 2.12667 23.3667 2.9 23.82C3.67334 24.2733 4.48667 24.5 5.34 24.5H19.42C20.2733 24.5 21.0867 24.2733 21.86 23.82C22.6333 23.3667 23.2467 22.7533 23.7 21.98C24.1533 21.2067 24.38 20.3933 24.38 19.54V9.46C24.38 8.66 24.0867 7.96667 23.5 7.38C22.9133 6.79333 22.1933 6.5 21.34 6.5H21.42ZM12.38 2.5C13.5 2.5 14.4467 2.88667 15.22 3.66C15.9933 4.43333 16.38 5.38 16.38 6.5H8.38C8.38 5.38 8.76667 4.43333 9.54 3.66C10.3133 2.88667 11.26 2.5 12.38 2.5ZM22.38 19.46C22.38 20.3133 22.0867 21.0333 21.5 21.62C20.9133 22.2067 20.1933 22.5 19.34 22.5H5.42C4.56667 22.5 3.84667 22.2067 3.26 21.62C2.67334 21.0333 2.38 20.34 2.38 19.54V9.46C2.38 9.19333 2.47334 8.96667 2.66 8.78C2.84667 8.59333 3.07334 8.5 3.34 8.5H6.38V10.5C6.38 10.7667 6.47334 11.0067 6.66 11.22C6.84667 11.4333 7.08667 11.5267 7.38 11.5C7.67334 11.4733 7.91334 11.3667 8.1 11.18C8.28667 10.9933 8.38 10.7667 8.38 10.5V8.5H16.38V10.5C16.38 10.7667 16.4733 11.0067 16.66 11.22C16.8467 11.4333 17.0867 11.5267 17.38 11.5C17.6733 11.4733 17.9133 11.3667 18.1 11.18C18.2867 10.9933 18.38 10.7667 18.38 10.5V8.5H21.42C21.6867 8.5 21.9133 8.59333 22.1 8.78C22.2867 8.96667 22.38 9.19333 22.38 9.46V19.46Z" fill="#4B5966"/>
</g>
<defs>
<clipPath id="clip0_1_835">
<rect width="24" height="24" fill="white" transform="matrix(1 0 0 -1 0.380005 24.5)"/>
</clipPath>
</defs>
</svg>
