<svg width="25" height="25" viewBox="0 0 25 25" fill="none" xmlns="http://www.w3.org/2000/svg">
<g clip-path="url(#clip0_1_830)">
<path d="M18.29 2.42C17.1167 2.42 16.0367 2.71334 15.05 3.3C14.0634 3.88667 13.3034 4.68667 12.77 5.7C12.2367 4.68667 11.4767 3.88667 10.49 3.3C9.50335 2.71334 8.41002 2.43333 7.21002 2.46C6.01002 2.48667 4.90335 2.82 3.89002 3.46C2.87668 4.1 2.09002 4.95333 1.53002 6.02C0.970018 7.08667 0.716685 8.23333 0.770018 9.46C0.770018 11.54 1.73002 13.8333 3.65002 16.34C5.14335 18.26 7.11668 20.26 9.57002 22.34C10.4767 23.14 11.5434 23.54 12.77 23.54C13.9967 23.54 15.0634 23.14 15.97 22.34C18.4234 20.26 20.3967 18.26 21.89 16.34C23.81 13.8333 24.77 11.54 24.77 9.46C24.8233 8.23333 24.57 7.08667 24.01 6.02C23.45 4.95333 22.6633 4.1 21.65 3.46C20.6367 2.82 19.5167 2.47334 18.29 2.42ZM14.69 20.82C14.1567 21.3 13.5167 21.54 12.77 21.54C12.0234 21.54 11.3834 21.3 10.85 20.82C8.29002 18.6867 6.30335 16.62 4.89002 14.62C3.47668 12.62 2.77002 10.9 2.77002 9.46C2.71668 8.60667 2.89002 7.80667 3.29002 7.06C3.69002 6.31334 4.23668 5.7 4.93002 5.22C5.62335 4.74 6.39668 4.5 7.25002 4.5C8.10335 4.5 8.89002 4.74 9.61002 5.22C10.33 5.7 10.8767 6.31334 11.25 7.06C11.6234 7.80667 11.81 8.60667 11.81 9.46C11.81 9.72667 11.9034 9.96667 12.09 10.18C12.2767 10.3933 12.5034 10.5 12.77 10.5C13.0367 10.5 13.2634 10.3933 13.45 10.18C13.6367 9.96667 13.7567 9.72667 13.81 9.46C13.7567 8.60667 13.9167 7.80667 14.29 7.06C14.6634 6.31334 15.21 5.7 15.93 5.22C16.65 4.74 17.4367 4.5 18.29 4.5C19.1434 4.5 19.9167 4.74 20.61 5.22C21.3034 5.7 21.85 6.31334 22.25 7.06C22.65 7.80667 22.8233 8.60667 22.77 9.46C22.77 10.9 22.0634 12.62 20.65 14.62C19.2367 16.62 17.25 18.6867 14.69 20.82Z" fill="#4B5966"/>
</g>
<defs>
<clipPath id="clip0_1_830">
<rect width="24" height="24" fill="white" transform="matrix(1 0 0 -1 0.77002 24.5)"/>
</clipPath>
</defs>
</svg>
