<svg width="25" height="25" viewBox="0 0 25 25" fill="none" xmlns="http://www.w3.org/2000/svg">
<g clip-path="url(#clip0_1_825)">
<path d="M12.0899 12.5C13.1566 12.5 14.1566 12.2333 15.0899 11.7C16.0233 11.1667 16.7566 10.4333 17.2899 9.5C17.8233 8.56667 18.0899 7.56667 18.0899 6.5C18.0899 5.43333 17.8233 4.43333 17.2899 3.5C16.7566 2.56667 16.0233 1.83333 15.0899 1.3C14.1566 0.766666 13.1566 0.5 12.0899 0.5C11.0233 0.5 10.0233 0.766666 9.08993 1.3C8.15659 1.83333 7.42326 2.56667 6.88993 3.5C6.35659 4.43333 6.08993 5.43333 6.08993 6.5C6.08993 7.56667 6.35659 8.56667 6.88993 9.5C7.42326 10.4333 8.15659 11.1667 9.08993 11.7C10.0233 12.2333 11.0233 12.5 12.0899 12.5ZM12.0899 2.5C13.2099 2.5 14.1566 2.88667 14.9299 3.66C15.7033 4.43333 16.0899 5.38 16.0899 6.5C16.0899 7.62 15.7033 8.56667 14.9299 9.34C14.1566 10.1133 13.2099 10.5 12.0899 10.5C10.9699 10.5 10.0233 10.1133 9.24993 9.34C8.47659 8.56667 8.08993 7.62 8.08993 6.5C8.08993 5.38 8.47659 4.43333 9.24993 3.66C10.0233 2.88667 10.9699 2.5 12.0899 2.5ZM12.0899 14.5C10.4366 14.5 8.92993 14.9 7.56993 15.7C6.20993 16.5 5.12993 17.5933 4.32993 18.98C3.52993 20.3667 3.10326 21.8867 3.04993 23.54C3.10326 23.8067 3.22326 24.0333 3.40993 24.22C3.59659 24.4067 3.82326 24.5 4.08993 24.5C4.35659 24.5 4.58326 24.4067 4.76993 24.22C4.95659 24.0333 5.04993 23.8067 5.04993 23.54C5.10326 22.26 5.43659 21.0867 6.04993 20.02C6.66326 18.9533 7.50326 18.1 8.56993 17.46C9.63659 16.82 10.8099 16.5 12.0899 16.5C13.3699 16.5 14.5433 16.82 15.6099 17.46C16.6766 18.1 17.5299 18.9533 18.1699 20.02C18.8099 21.0867 19.1299 22.26 19.1299 23.54C19.1299 23.8067 19.2233 24.0333 19.4099 24.22C19.5966 24.4067 19.8233 24.5 20.0899 24.5C20.3566 24.5 20.5966 24.4067 20.8099 24.22C21.0233 24.0333 21.1299 23.8067 21.1299 23.54C21.0766 21.8867 20.6499 20.3667 19.8499 18.98C19.0499 17.5933 17.9699 16.5 16.6099 15.7C15.2499 14.9 13.7433 14.5 12.0899 14.5Z" fill="#4B5966"/>
</g>
<defs>
<clipPath id="clip0_1_825">
<rect width="24" height="24" fill="white" transform="matrix(1 0 0 -1 0.0899658 24.5)"/>
</clipPath>
</defs>
</svg>
