<svg width="17" height="17" viewBox="0 0 17 17" fill="none" xmlns="http://www.w3.org/2000/svg">
<g clip-path="url(#clip0_1_819)">
<path d="M15.8368 15.38L11.8901 11.38C12.6368 10.4911 13.1079 9.47778 13.3034 8.34C13.499 7.20222 13.4101 6.09111 13.0368 5.00667C12.6634 3.92222 12.0412 2.98889 11.1701 2.20667C10.299 1.42444 9.31233 0.908889 8.21011 0.66C7.10788 0.41111 5.99677 0.437777 4.87677 0.74C3.75677 1.04222 2.78788 1.60222 1.97011 2.42C1.15233 3.23778 0.592328 4.20667 0.290106 5.32667C-0.0121162 6.44667 -0.0387828 7.55778 0.210106 8.66C0.458995 9.76222 0.97455 10.7489 1.75677 11.62C2.539 12.4911 3.47233 13.1133 4.55677 13.4867C5.64122 13.86 6.75233 13.9489 7.89011 13.7533C9.02788 13.5578 10.0412 13.0867 10.9301 12.34L14.9301 16.2867C15.0368 16.4289 15.1879 16.5 15.3834 16.5C15.579 16.5 15.739 16.4378 15.8634 16.3133C15.9879 16.1889 16.0501 16.0289 16.0501 15.8333C16.0501 15.6378 15.979 15.4867 15.8368 15.38ZM6.71677 12.5C5.75677 12.5 4.86788 12.26 4.05011 11.78C3.23233 11.3 2.58344 10.6511 2.10344 9.83333C1.62344 9.01556 1.38344 8.12667 1.38344 7.16667C1.38344 6.20667 1.62344 5.31778 2.10344 4.5C2.58344 3.68222 3.23233 3.03333 4.05011 2.55333C4.86788 2.07333 5.75677 1.83333 6.71677 1.83333C7.67677 1.83333 8.56566 2.07333 9.38344 2.55333C10.2012 3.03333 10.8501 3.68222 11.3301 4.5C11.8101 5.31778 12.0501 6.20667 12.0501 7.16667C12.0501 8.12667 11.8101 9.01556 11.3301 9.83333C10.8501 10.6511 10.2012 11.3 9.38344 11.78C8.56566 12.26 7.67677 12.5 6.71677 12.5Z" fill="#4B5966"/>
</g>
<defs>
<clipPath id="clip0_1_819">
<rect width="16" height="16" fill="white" transform="matrix(1 0 0 -1 0.0500488 16.5)"/>
</clipPath>
</defs>
</svg>
