<svg width="16" height="15" viewBox="0 0 16 15" fill="none" xmlns="http://www.w3.org/2000/svg">
<path d="M8.31501 0.599999C8.31501 0.433332 8.37334 0.291666 8.49001 0.174999C8.60667 0.0583324 8.74834 -9.53674e-07 8.91501 -9.53674e-07C10.0483 -9.53674e-07 11.09 0.283333 12.04 0.849999C12.99 1.41667 13.7483 2.175 14.315 3.125C14.8817 4.075 15.165 5.11667 15.165 6.25C15.165 6.41667 15.1067 6.56667 14.99 6.7C14.8733 6.83333 14.7233 6.89167 14.54 6.875C14.3567 6.85833 14.2067 6.79167 14.09 6.675C13.9733 6.55833 13.915 6.41667 13.915 6.25C13.915 5.35 13.69 4.51667 13.24 3.75C12.79 2.98333 12.1817 2.375 11.415 1.925C10.6483 1.475 9.81501 1.25 8.91501 1.25C8.74834 1.25 8.60667 1.19167 8.49001 1.075C8.37334 0.958333 8.31501 0.816666 8.31501 0.65V0.599999ZM8.91501 3.75C9.61501 3.75 10.2067 3.99167 10.69 4.475C11.1733 4.95833 11.415 5.55 11.415 6.25C11.415 6.41667 11.4733 6.56667 11.59 6.7C11.7067 6.83333 11.8567 6.89167 12.04 6.875C12.2233 6.85833 12.3733 6.79167 12.49 6.675C12.6067 6.55833 12.665 6.41667 12.665 6.25C12.665 5.58333 12.4983 4.95833 12.165 4.375C11.8317 3.79167 11.3733 3.33333 10.79 3C10.2067 2.66667 9.58167 2.5 8.91501 2.5C8.74834 2.5 8.60667 2.55833 8.49001 2.675C8.37334 2.79167 8.31501 2.94167 8.31501 3.125C8.31501 3.30833 8.37334 3.45833 8.49001 3.575C8.60667 3.69167 8.74834 3.75 8.91501 3.75ZM14.615 10.45C14.9817 10.85 15.165 11.3167 15.165 11.85C15.165 12.3833 14.9817 12.8333 14.615 13.2L14.015 13.85C13.0483 14.7833 11.7983 15.1333 10.265 14.9C8.89834 14.7 7.46501 14.0667 5.96501 13C4.49834 11.9667 3.24834 10.7167 2.21501 9.25C1.11501 7.75 0.465006 6.31667 0.265006 4.95C0.0316729 3.41667 0.365006 2.15 1.26501 1.15L2.01501 0.549999C2.38167 0.183332 2.83167 -9.53674e-07 3.36501 -9.53674e-07C3.89834 -9.53674e-07 4.34834 0.183332 4.71501 0.549999L5.86501 2.1C6.23167 2.46667 6.41501 2.90833 6.41501 3.425C6.41501 3.94167 6.23167 4.38333 5.86501 4.75L5.16501 5.7C5.56501 6.66667 6.14001 7.525 6.89001 8.275C7.64001 9.025 8.49834 9.6 9.46501 10L10.415 9.3C10.7817 8.93333 11.2233 8.75 11.74 8.75C12.2567 8.75 12.6983 8.93333 13.065 9.3L14.615 10.45ZM13.715 11.35C13.215 10.9833 12.715 10.6 12.215 10.2C12.0817 10.0667 11.9233 10 11.74 10C11.5567 10 11.3983 10.0667 11.265 10.2L9.96501 11.2C9.79834 11.3667 9.59834 11.4 9.36501 11.3C8.09834 10.8333 6.98167 10.1167 6.01501 9.15C5.04834 8.18333 4.33167 7.06667 3.86501 5.8C3.76501 5.56667 3.79834 5.36667 3.96501 5.2L4.96501 3.9C5.09834 3.76667 5.16501 3.60833 5.16501 3.425C5.16501 3.24167 5.09834 3.08333 4.96501 2.95L3.81501 1.45C3.68167 1.31667 3.52334 1.25 3.34001 1.25C3.15667 1.25 2.99834 1.31667 2.86501 1.45L2.11501 2.1C1.44834 2.9 1.26501 3.93333 1.56501 5.2C1.83167 6.33333 2.44834 7.51667 3.41501 8.75C4.31501 9.95 5.39001 11 6.64001 11.9C7.89001 12.8 9.08167 13.3667 10.215 13.6C11.4483 13.8667 12.415 13.6667 13.115 13L13.665 12.35C13.8317 12.2167 13.915 12.0583 13.915 11.875C13.915 11.6917 13.8483 11.5167 13.715 11.35Z" fill="#777777"/>
</svg>
