<svg width="16" height="15" viewBox="0 0 16 15" fill="none" xmlns="http://www.w3.org/2000/svg">
<path d="M13.605 2.2C12.905 1.5 12.0967 0.958333 11.18 0.575C10.2633 0.191667 9.32168 0 8.35501 0C6.98834 0 5.73834 0.333333 4.60501 1C3.47168 1.66667 2.57168 2.56667 1.90501 3.7C1.23834 4.83333 0.905011 6.075 0.905011 7.425C0.905011 8.775 1.23834 10.0167 1.90501 11.15L0.855011 15L4.80501 13.95C5.90501 14.55 7.08834 14.85 8.35501 14.85C9.68834 14.85 10.9217 14.5167 12.055 13.85C13.1883 13.1833 14.0883 12.2833 14.755 11.15C15.4217 10.0167 15.755 8.78333 15.755 7.45C15.755 6.45 15.5717 5.5 15.205 4.6C14.8383 3.7 14.305 2.9 13.605 2.2ZM8.35501 13.6C7.22168 13.6 6.17168 13.3167 5.20501 12.75L4.95501 12.6L2.60501 13.25L3.25501 10.95L3.10501 10.7C2.47168 9.7 2.15501 8.625 2.15501 7.475C2.15501 6.325 2.43001 5.275 2.98001 4.325C3.53001 3.375 4.28001 2.625 5.23001 2.075C6.18001 1.525 7.22168 1.25 8.35501 1.25C9.15501 1.25 9.93834 1.40833 10.705 1.725C11.4717 2.04167 12.1467 2.49167 12.73 3.075C13.3133 3.65833 13.755 4.325 14.055 5.075C14.355 5.825 14.505 6.61667 14.505 7.45C14.505 8.55 14.23 9.575 13.68 10.525C13.13 11.475 12.38 12.225 11.43 12.775C10.48 13.325 9.45501 13.6 8.35501 13.6ZM11.705 9C11.0383 8.63333 10.6383 8.43333 10.505 8.4C10.3717 8.36667 10.2717 8.35 10.205 8.35C10.1383 8.35 10.0883 8.4 10.055 8.5C9.92168 8.63333 9.72168 8.86667 9.45501 9.2C9.35501 9.33333 9.22168 9.35 9.05501 9.25L8.90501 9.2C8.40501 8.96667 7.95501 8.675 7.55501 8.325C7.15501 7.975 6.80501 7.55 6.50501 7.05C6.47168 6.95 6.46334 6.875 6.48001 6.825C6.49668 6.775 6.53834 6.71667 6.60501 6.65L6.85501 6.35C6.92168 6.28333 6.98834 6.2 7.05501 6.1V6.05C7.12168 5.95 7.12168 5.83333 7.05501 5.7L6.45501 4.3C6.42168 4.16667 6.37168 4.08333 6.30501 4.05C6.23834 4.01667 6.17168 4 6.10501 4H5.70501C5.50501 4 5.33834 4.08333 5.20501 4.25H5.15501C4.98834 4.45 4.87168 4.63333 4.80501 4.8C4.63834 5.1 4.55501 5.43333 4.55501 5.8C4.55501 6.16667 4.67168 6.58333 4.90501 7.05C5.00501 7.28333 5.13834 7.5 5.30501 7.7L5.35501 7.75C5.65501 8.18333 5.98834 8.58333 6.35501 8.95C7.05501 9.68333 7.77168 10.2 8.50501 10.5C8.80501 10.6333 9.13834 10.7583 9.50501 10.875C9.87168 10.9917 10.2717 11.0167 10.705 10.95C10.905 10.95 11.1467 10.8583 11.43 10.675C11.7133 10.4917 11.8883 10.3 11.955 10.1C12.0217 9.9 12.0633 9.71667 12.08 9.55C12.0967 9.38333 12.0967 9.275 12.08 9.225C12.0633 9.175 11.9717 9.11667 11.805 9.05L11.705 9Z" fill="#777777"/>
</svg>
