<svg width="16" height="15" viewBox="0 0 16 15" fill="none" xmlns="http://www.w3.org/2000/svg">
<path d="M11.6807 0.779985C10.8985 0.779985 10.1785 0.97554 9.52073 1.36665C8.86295 1.75776 8.35629 2.2911 8.00073 2.96665C7.64518 2.2911 7.13851 1.75776 6.48073 1.36665C5.82295 0.97554 5.09406 0.788874 4.29406 0.806652C3.49406 0.82443 2.75629 1.04665 2.08073 1.47332C1.40518 1.89999 0.880731 2.46887 0.507398 3.17999C0.134065 3.8911 -0.0348241 4.65554 0.000731431 5.47332C0.000731431 6.85999 0.640731 8.38887 1.92073 10.06C2.91629 11.34 4.23184 12.6733 5.8674 14.06C6.47184 14.5933 7.18295 14.86 8.00073 14.86C8.81851 14.86 9.52962 14.5933 10.1341 14.06C11.7696 12.6733 13.0852 11.34 14.0807 10.06C15.3607 8.38887 16.0007 6.85999 16.0007 5.47332C16.0363 4.65554 15.8674 3.8911 15.4941 3.17999C15.1207 2.46887 14.5963 1.89999 13.9207 1.47332C13.2452 1.04665 12.4985 0.81554 11.6807 0.779985ZM9.28073 13.0467C8.92518 13.3667 8.49851 13.5267 8.00073 13.5267C7.50295 13.5267 7.07629 13.3667 6.72073 13.0467C5.01406 11.6244 3.68962 10.2467 2.7474 8.91332C1.80518 7.57999 1.33406 6.43332 1.33406 5.47332C1.29851 4.90443 1.41406 4.3711 1.68073 3.87332C1.9474 3.37554 2.31184 2.96665 2.77406 2.64665C3.23629 2.32665 3.75184 2.16665 4.32073 2.16665C4.88962 2.16665 5.41406 2.32665 5.89406 2.64665C6.37406 2.96665 6.73851 3.37554 6.9874 3.87332C7.23629 4.3711 7.36073 4.90443 7.36073 5.47332C7.36073 5.6511 7.42295 5.8111 7.5474 5.95332C7.67184 6.09554 7.82295 6.16665 8.00073 6.16665C8.17851 6.16665 8.32962 6.09554 8.45406 5.95332C8.57851 5.8111 8.65851 5.6511 8.69406 5.47332C8.65851 4.90443 8.76518 4.3711 9.01406 3.87332C9.26295 3.37554 9.6274 2.96665 10.1074 2.64665C10.5874 2.32665 11.1118 2.16665 11.6807 2.16665C12.2496 2.16665 12.7652 2.32665 13.2274 2.64665C13.6896 2.96665 14.0541 3.37554 14.3207 3.87332C14.5874 4.3711 14.703 4.90443 14.6674 5.47332C14.6674 6.43332 14.1963 7.57999 13.2541 8.91332C12.3118 10.2467 10.9874 11.6244 9.28073 13.0467Z" fill="#4B5966"/>
</svg>
