<svg width="41" height="41" viewBox="0 0 41 41" fill="none" xmlns="http://www.w3.org/2000/svg">
<path d="M33.5233 22.1H27.9233L29.2567 12.2333C29.5233 10.9889 29.2344 9.83333 28.39 8.76666C27.5456 7.7 26.4567 7.16666 25.1233 7.16666H20.3233L20.59 4.36666C20.6789 3.74444 20.9678 3.21111 21.4567 2.76667C21.9456 2.32222 22.5011 2.1 23.1233 2.1H28.4567C28.7233 2.1 28.9233 2.03333 29.0567 1.9C29.19 1.76667 29.2567 1.58889 29.2567 1.36666C29.2567 1.14444 29.19 0.944443 29.0567 0.766666C28.9233 0.588886 28.7233 0.499996 28.4567 0.499996H23.1233C22.0567 0.499996 21.1233 0.855553 20.3233 1.56667C19.5233 2.27777 19.0789 3.12222 18.99 4.1L18.59 7.16666H5.12333C3.78999 7.16666 2.72333 7.7 1.92333 8.76666C1.47888 9.21111 1.18999 9.74444 1.05666 10.3667C0.923328 10.9889 0.94555 11.6111 1.12333 12.2333L3.65666 33.8333C3.83444 35.7889 4.63444 37.3889 6.05666 38.6333C7.47888 39.8778 9.16777 40.5 11.1233 40.5H33.5233C35.5678 40.5 37.3233 39.7667 38.79 38.3C40.2567 36.8333 40.99 35.0778 40.99 33.0333V29.7C40.99 27.5667 40.2567 25.7667 38.79 24.3C37.3233 22.8333 35.5678 22.1 33.5233 22.1ZM39.39 29.7V30.5H17.6567V29.7C17.6567 28.1 18.2344 26.7222 19.39 25.5667C20.5456 24.4111 21.9233 23.8333 23.5233 23.8333H33.5233C35.1233 23.8333 36.4789 24.4111 37.59 25.5667C38.7011 26.7222 39.3011 28.1 39.39 29.7ZM32.4567 32.1L30.19 33.7L27.9233 32.1H32.4567ZM25.1233 8.9C25.9233 8.9 26.5678 9.21111 27.0567 9.83333C27.5456 10.4556 27.7011 11.1667 27.5233 11.9667L27.39 13.8333H19.39L20.0567 8.9H25.1233ZM3.25666 9.83333C3.70111 9.21111 4.32333 8.9 5.12333 8.9H18.3233L17.79 13.8333H2.99L2.72333 11.8333C2.54555 11.1222 2.72333 10.4556 3.25666 9.83333ZM11.1233 38.7667C9.61222 38.7667 8.30111 38.2778 7.19 37.3C6.07888 36.3222 5.43444 35.1222 5.25666 33.7L3.12333 15.4333H27.1233L26.3233 22.1H23.5233C21.39 22.1 19.59 22.8333 18.1233 24.3C16.6567 25.7667 15.9233 27.5667 15.9233 29.7V33.0333C15.9233 34.1889 16.19 35.2778 16.7233 36.3C17.2567 37.3222 17.9233 38.1444 18.7233 38.7667H11.1233ZM33.5233 38.7667H23.5233C21.9233 38.7667 20.5456 38.2111 19.39 37.1C18.2344 35.9889 17.6567 34.6333 17.6567 33.0333V32.1H24.8567L29.6567 35.3C29.8344 35.3889 30.0122 35.4333 30.19 35.4333C30.3678 35.4333 30.5011 35.3889 30.59 35.3L35.39 32.1H39.39V33.0333C39.39 34.6333 38.8122 35.9889 37.6567 37.1C36.5011 38.2111 35.1233 38.7667 33.5233 38.7667Z" fill="#5CAF90"/>
</svg>
