<svg width="38" height="41" viewBox="0 0 38 41" fill="none" xmlns="http://www.w3.org/2000/svg">
<path d="M36.19 17.7C35.4789 17.1667 34.6789 17.0333 33.79 17.3C32.7233 17.7444 31.6567 18.2778 30.59 18.9C30.3233 15.5222 29.5678 12.3667 28.3233 9.43333C27.1678 6.76667 25.7455 4.61111 24.0567 2.96666C22.3678 1.32222 20.6789 0.499996 18.99 0.499996C17.3011 0.499996 15.6122 1.32222 13.9233 2.96666C12.2344 4.61111 10.8122 6.76667 9.65666 9.43333C8.41221 12.3667 7.65666 15.5222 7.38999 18.9C6.32332 18.2778 5.25666 17.7444 4.18999 17.3C3.3011 17.0333 2.47888 17.1889 1.72332 17.7667C0.967769 18.3444 0.634436 19.1222 0.723325 20.1C0.989991 24.5444 2.1011 28.3667 4.05666 31.5667C5.83444 34.5 8.1011 36.7667 10.8567 38.3667C13.4344 39.7889 16.1455 40.5 18.99 40.5C21.8344 40.5 24.5455 39.7889 27.1233 38.3667C29.8789 36.7667 32.1455 34.5 33.9233 31.5667C35.8789 28.3667 36.99 24.5444 37.2567 20.1C37.3455 19.1222 36.99 18.3222 36.19 17.7ZM2.32332 19.9667C2.32332 19.6111 2.43444 19.3444 2.65666 19.1667C2.87888 18.9889 3.07888 18.9 3.25666 18.9H3.52332C4.94555 19.4333 6.27888 20.1 7.52332 20.9C7.61221 21.0778 7.74555 21.2111 7.92333 21.3C11.2122 23.7 13.8789 27.1667 15.9233 31.7C16.99 34.1889 17.7455 36.5444 18.19 38.7667C15.9678 38.5889 13.8344 37.9667 11.79 36.9C9.3011 35.4778 7.25666 33.5222 5.65666 31.0333C3.78999 28.0111 2.67888 24.3222 2.32332 19.9667ZM13.1233 23.8333H16.4567C16.7233 23.8333 16.9455 23.7444 17.1233 23.5667C17.3011 23.3889 17.39 23.1889 17.39 22.9667C17.39 22.7444 17.3011 22.5444 17.1233 22.3667C16.9455 22.1889 16.7233 22.1 16.4567 22.1H11.5233C10.7233 21.3889 9.87888 20.6778 8.98999 19.9667C9.07888 19.0778 9.16777 18.1444 9.25666 17.1667H13.1233C13.39 17.1667 13.59 17.0778 13.7233 16.9C13.8567 16.7222 13.9455 16.5222 13.99 16.3C14.0344 16.0778 13.9678 15.8778 13.79 15.7C13.6122 15.5222 13.39 15.4333 13.1233 15.4333H9.52332C9.87888 13.7444 10.3678 12.1 10.99 10.5H16.4567C16.7233 10.5 16.9233 10.4111 17.0567 10.2333C17.19 10.0556 17.2789 9.85555 17.3233 9.63333C17.3678 9.41111 17.3011 9.21111 17.1233 9.03333C16.9455 8.85555 16.7233 8.76666 16.4567 8.76666H11.79C12.7678 6.81111 13.9011 5.21111 15.19 3.96666C16.4789 2.72222 17.7455 2.1 18.99 2.1C20.2344 2.1 21.5011 2.72222 22.79 3.96666C24.0789 5.21111 25.2122 6.81111 26.19 8.76666H21.5233C21.2567 8.76666 21.0567 8.85555 20.9233 9.03333C20.79 9.21111 20.7233 9.41111 20.7233 9.63333C20.7233 9.85555 20.79 10.0556 20.9233 10.2333C21.0567 10.4111 21.2567 10.5 21.5233 10.5H26.99C27.6122 12.1 28.1011 13.7889 28.4567 15.5667H24.8567C24.59 15.4778 24.3678 15.5222 24.19 15.7C24.0122 15.8778 23.9455 16.0778 23.99 16.3C24.0344 16.5222 24.1233 16.7222 24.2567 16.9C24.39 17.0778 24.59 17.1667 24.8567 17.1667H28.7233C28.8122 18.1444 28.9011 19.0778 28.99 19.9667C28.1011 20.6778 27.2567 21.3889 26.4567 22.1H21.5233C21.2567 22.1 21.0567 22.1889 20.9233 22.3667C20.79 22.5444 20.7233 22.7444 20.7233 22.9667C20.7233 23.1889 20.79 23.3889 20.9233 23.5667C21.0567 23.7444 21.2567 23.8333 21.5233 23.8333H24.8567C22.2789 26.9444 20.3233 30.7667 18.99 35.3C17.6567 30.7667 15.7011 26.9444 13.1233 23.8333ZM35.6567 19.9667C35.3011 24.3222 34.19 28.0111 32.3233 31.0333C30.7233 33.5222 28.6789 35.4778 26.19 36.9C24.1455 37.9667 22.0122 38.5889 19.79 38.7667C20.2344 36.5444 20.99 34.1889 22.0567 31.7C24.1011 27.1667 26.7678 23.7 30.0567 21.3C30.2344 21.2111 30.3678 21.0778 30.4567 20.9C31.7011 20.1 33.0344 19.4333 34.4567 18.9H34.7233C34.9011 18.9 35.1011 18.9667 35.3233 19.1C35.5455 19.2333 35.6567 19.5222 35.6567 19.9667ZM20.7233 16.3667C20.7233 16.5444 20.6344 16.7222 20.4567 16.9C20.2789 17.0778 20.0567 17.1667 19.79 17.1667H18.19C17.9233 17.1667 17.7233 17.0778 17.59 16.9C17.4567 16.7222 17.39 16.5222 17.39 16.3C17.39 16.0778 17.4567 15.8778 17.59 15.7C17.7233 15.5222 17.9233 15.4333 18.19 15.4333H19.79C20.0567 15.4333 20.2789 15.5222 20.4567 15.7C20.6344 15.8778 20.7233 16.1 20.7233 16.3667Z" fill="#5CAF90"/>
</svg>
