<svg width="40" height="41" viewBox="0 0 40 41" fill="none" xmlns="http://www.w3.org/2000/svg">
<path d="M39.0567 20.3667C38.4344 19.5667 37.59 19.0778 36.5233 18.9L38.1233 14.3667C38.4789 13.3 38.39 12.2333 37.8567 11.1667C37.3233 10.1 36.5455 9.38889 35.5233 9.03333C34.5011 8.67778 33.5455 8.72222 32.6567 9.16666L33.3233 5.3C33.5011 4.23333 33.2566 3.23333 32.59 2.3C31.9233 1.36666 31.0122 0.788887 29.8566 0.566666C28.7011 0.34444 27.6567 0.566666 26.7233 1.23333C25.79 1.9 25.2344 2.81111 25.0567 3.96666L24.6567 5.56667C24.39 4.58889 23.8122 3.78889 22.9233 3.16666C22.0344 2.54444 21.0567 2.23333 19.99 2.23333C18.9233 2.23333 17.9455 2.54444 17.0567 3.16666C16.1678 3.78889 15.5455 4.58889 15.19 5.56667L14.9233 3.96666C14.7455 2.81111 14.19 1.9 13.2566 1.23333C12.3233 0.566666 11.2789 0.34444 10.1233 0.566666C8.96776 0.788887 8.05665 1.36666 7.38998 2.3C6.72332 3.23333 6.47887 4.23333 6.65665 5.3L7.32332 9.16666C6.43443 8.72222 5.45665 8.67778 4.38998 9.03333C3.32332 9.38889 2.54554 10.1 2.05665 11.1667C1.56776 12.2333 1.50109 13.3 1.85665 14.3667L3.45665 18.9C2.38998 19.0778 1.54554 19.5667 0.923315 20.3667C0.123315 21.4333 -0.143351 22.5889 0.123315 23.8333L2.25665 34.5C2.6122 36.2778 3.50109 37.7222 4.92332 38.8333C6.34554 39.9444 7.90109 40.5 9.58998 40.5H30.39C32.0789 40.5 33.6344 39.9444 35.0567 38.8333C36.4789 37.7222 37.3678 36.2778 37.7233 34.5L39.8567 23.8333C40.1233 22.5889 39.8567 21.4333 39.0567 20.3667ZM32.2566 11.4333C32.5233 11.0778 32.9233 10.8111 33.4566 10.6333C33.99 10.4556 34.4789 10.4556 34.9233 10.6333C35.6344 10.9 36.1233 11.3222 36.39 11.9C36.6567 12.4778 36.7011 13.1222 36.5233 13.8333L34.79 18.7667H30.9233L32.2566 11.4333ZM25.0567 12.7667L26.6567 4.23333C26.8344 3.52222 27.19 2.96666 27.7233 2.56667C28.2567 2.16666 28.8789 2.03333 29.59 2.16666C30.3011 2.3 30.8567 2.65555 31.2567 3.23333C31.6567 3.81111 31.7678 4.41111 31.59 5.03333L29.19 18.7667H25.0567V12.7667ZM16.6567 7.16666C16.6567 6.27777 16.99 5.5 17.6567 4.83333C18.3233 4.16666 19.1011 3.83333 19.99 3.83333C20.8789 3.83333 21.6567 4.16666 22.3233 4.83333C22.99 5.5 23.3233 6.27777 23.3233 7.16666V18.7667H16.6567V7.16666ZM10.39 2.23333C11.1011 2.05555 11.7233 2.16666 12.2566 2.56667C12.79 2.96666 13.1455 3.52222 13.3233 4.23333L15.0566 12.7667V18.9H10.79L8.38998 5.03333C8.2122 4.41111 8.32332 3.81111 8.72332 3.23333C9.12332 2.65555 9.67887 2.32222 10.39 2.23333ZM3.58998 11.8333C3.85665 11.3 4.34554 10.9 5.05665 10.6333C5.50109 10.4556 5.98998 10.4556 6.52332 10.6333C7.05665 10.8111 7.45665 11.0778 7.72332 11.4333L9.05665 18.7667H5.18998L3.45665 13.8333C3.27887 13.1222 3.32332 12.4556 3.58998 11.8333ZM38.2566 23.5667L35.99 34.2333C35.7233 35.5667 35.0567 36.6556 33.99 37.5C32.9233 38.3444 31.7233 38.7667 30.39 38.7667H9.58998C8.25665 38.7667 7.05665 38.3444 5.98998 37.5C4.92332 36.6556 4.25665 35.5667 3.98998 34.2333L1.72332 23.5667C1.54554 22.7667 1.70109 22.0556 2.18998 21.4333C2.67887 20.8111 3.32332 20.5 4.12332 20.5H35.8567C36.6567 20.5 37.3011 20.8111 37.79 21.4333C38.2789 22.0556 38.4344 22.7667 38.2566 23.5667Z" fill="#5CAF90"/>
</svg>
