<svg width="41" height="41" viewBox="0 0 41 41" fill="none" xmlns="http://www.w3.org/2000/svg">
<path d="M37.9233 5.16666C37.301 3.74444 36.3677 2.61111 35.1233 1.76667C33.8788 0.922218 32.501 0.499996 30.9899 0.499996H5.12326C4.85659 0.499996 4.63437 0.611111 4.45659 0.833332C4.27881 1.05555 4.23437 1.34444 4.32326 1.7L7.52326 9.56667C6.45659 11.6111 5.38992 14.0556 4.32326 16.9C2.63437 21.7889 1.52326 26.9 0.989924 32.2333C0.901035 33.3 1.03437 34.3444 1.38992 35.3667C1.74548 36.3889 2.27881 37.2778 2.98992 38.0333C3.70103 38.7889 4.52326 39.3889 5.45659 39.8333C6.38992 40.2778 7.38992 40.5 8.45659 40.5H28.4566C29.5233 40.5 30.5455 40.2778 31.5233 39.8333C32.501 39.3889 33.3455 38.7889 34.0566 38.0333C34.7677 37.2778 35.2788 36.3889 35.5899 35.3667C35.901 34.3444 36.0121 33.3 35.9233 32.2333C35.3899 26.8111 34.2344 21.5667 32.4566 16.5C31.4788 13.7444 30.4566 11.3889 29.3899 9.43333V2.1H30.9899C32.1455 2.1 33.2121 2.45555 34.1899 3.16666C35.1677 3.87778 35.8788 4.76667 36.3233 5.83333C38.3677 10.9 39.3899 16.0556 39.3899 21.3C39.3899 21.5667 39.4566 21.7889 39.5899 21.9667C39.7233 22.1444 39.901 22.2111 40.1233 22.1667C40.3455 22.1222 40.5455 22.0333 40.7233 21.9C40.901 21.7667 40.9899 21.5667 40.9899 21.3C40.9899 15.7889 39.9677 10.4556 37.9233 5.3V5.16666ZM32.8566 36.9C31.701 38.1444 30.2344 38.7667 28.4566 38.7667H8.45659C6.7677 38.7667 5.34548 38.1444 4.18992 36.9C3.65659 36.2778 3.25659 35.5889 2.98992 34.8333C2.72326 34.0778 2.63437 33.2556 2.72326 32.3667C2.98992 28.9 3.5677 25.4778 4.45659 22.1H26.8566C27.0344 22.1 27.2121 22.0333 27.3899 21.9C27.5677 21.7667 27.6566 21.5889 27.6566 21.3667C27.6566 21.1444 27.5677 20.9444 27.3899 20.7667C27.2121 20.5889 27.0344 20.5 26.8566 20.5H4.98992C6.14548 16.5889 7.47881 13.2556 8.98992 10.5H28.0566C29.1233 12.5444 30.1455 14.9444 31.1233 17.7C32.7233 22.4111 33.7899 27.3 34.3233 32.3667C34.4121 33.2556 34.3233 34.0778 34.0566 34.8333C33.7899 35.5889 33.3899 36.2778 32.8566 36.9ZM27.6566 8.76666H8.98992L6.32326 2.1H27.6566V8.76666Z" fill="#5CAF90"/>
</svg>
