<svg width="40" height="41" viewBox="0 0 40 41" fill="none" xmlns="http://www.w3.org/2000/svg">
<path d="M33.59 8.63333C34.8345 7.38889 35.8122 5.87778 36.5234 4.1C36.79 3.3 36.7234 2.54444 36.3234 1.83333C35.9234 1.12222 35.3011 0.677776 34.4567 0.499996C33.6122 0.32222 32.7456 0.23333 31.8567 0.23333C28.8345 0.23333 26.2567 1.16666 24.1234 3.03333C22.6122 4.36666 21.3678 6.1 20.39 8.23333C19.8567 6.1 19.0122 4.36666 17.8567 3.03333C16.4345 1.34444 14.6567 0.499996 12.5234 0.499996C12.2567 0.499996 12.0567 0.588886 11.9234 0.766666C11.79 0.944443 11.7234 1.14444 11.7234 1.36666C11.7234 1.58889 11.79 1.78889 11.9234 1.96666C12.0567 2.14444 12.2567 2.23333 12.5234 2.23333C14.4789 2.14444 16.0789 3.12222 17.3234 5.16666C18.1234 6.41111 18.7011 7.92222 19.0567 9.7C17.1011 8.01111 14.79 7.16666 12.1234 7.16666C9.90113 7.16666 7.87891 7.72222 6.05669 8.83333C4.23447 9.94444 2.7678 11.4333 1.65669 13.3C0.545576 15.1667 -0.00997925 17.2111 -0.00997925 19.4333C-0.00997925 22.6333 0.701132 25.6556 2.12335 28.5C3.45669 30.9889 5.23447 33.1667 7.45669 35.0333C9.41224 36.8111 11.5456 38.1667 13.8567 39.1C16.1678 40.0333 18.2122 40.5 19.99 40.5C21.7678 40.5 23.8122 40.0333 26.1234 39.1C28.4345 38.1667 30.5678 36.8111 32.5234 35.0333C34.7456 33.1667 36.5234 30.9889 37.8567 28.5C39.2789 25.6556 39.99 22.6333 39.99 19.4333C39.99 17.2111 39.4122 15.1222 38.2567 13.1667C37.1011 11.2111 35.5456 9.7 33.59 8.63333ZM31.8567 1.83333C32.6567 1.83333 33.4567 1.92222 34.2567 2.1C34.5234 2.18889 34.7234 2.36666 34.8567 2.63333C34.99 2.9 35.0122 3.16666 34.9234 3.43333C33.0567 8.67778 28.5234 10.9889 21.3234 10.3667C21.9456 8.41111 22.8789 6.72222 24.1234 5.3C26.0789 2.98889 28.6567 1.83333 31.8567 1.83333ZM19.99 38.9C18.4789 38.9 16.7456 38.4556 14.79 37.5667C12.6567 36.6778 10.6567 35.4778 8.79002 33.9667C6.65669 32.1889 4.9678 30.1444 3.72335 27.8333C2.39002 25.2556 1.72335 22.4556 1.72335 19.4333C1.72335 17.4778 2.19002 15.7 3.12335 14.1C4.05669 12.5 5.32335 11.2333 6.92335 10.3C8.52335 9.36666 10.2567 8.9 12.1234 8.9C13.99 8.9 15.6345 9.34444 17.0567 10.2333C18.4789 11.1222 19.59 12.4111 20.39 14.1C21.19 15.7889 21.59 17.6556 21.59 19.7C21.6789 22.1 21.19 24.6778 20.1234 27.4333C19.5011 29.0333 18.9234 30.1889 18.39 30.9C18.3011 31.0778 18.2789 31.2778 18.3234 31.5C18.3678 31.7222 18.5011 31.9 18.7234 32.0333C18.9456 32.1667 19.1678 32.2111 19.39 32.1667C19.6122 32.1222 19.7678 31.9667 19.8567 31.7C20.4789 30.7222 21.0567 29.4778 21.59 27.9667C22.7456 25.0333 23.3234 22.2778 23.3234 19.7C23.3234 16.7667 22.6122 14.2333 21.19 12.1C21.99 12.1889 22.7456 12.2333 23.4567 12.2333C27.0122 12.2333 29.9456 11.4333 32.2567 9.83333C34.1234 10.7222 35.59 12.0333 36.6567 13.7667C37.7234 15.5 38.2567 17.3889 38.2567 19.4333C38.2567 22.4556 37.59 25.2556 36.2567 27.8333C35.0122 30.1444 33.3234 32.1889 31.19 33.9667C29.3234 35.4778 27.3234 36.6778 25.19 37.5667C23.2345 38.4556 21.5011 38.9 19.99 38.9Z" fill="#5CAF90"/>
</svg>
